Fly_normalized_Motion_pl12
version=1
nRows=16
nColumns=43
inDegrees=yes
endheader
time		pelvis_tilt		pelvis_list		pelvis_rotation		pelvis_tx		pelvis_ty		pelvis_tz		hip_flexion_r		hip_adduction_r		hip_rotation_r		knee_angle_r		ankle_angle_r		subtalar_angle_r		mtp_angle_r		hip_flexion_l		hip_adduction_l		hip_rotation_l		knee_angle_l		ankle_angle_l		subtalar_angle_l		mtp_angle_l		lumbar_extension		lumbar_bending		lumbar_rotation		neck_flexion		neck_lateral_bending		neck_rotation		arm_flex_r		arm_add_r		arm_rot_r		elbow_flex_r		pro_sup_r		wrist_flex_r		wrist_dev_r		hand_finger_flex_r		arm_flex_l		arm_add_l		arm_rot_l		elbow_flex_l		pro_sup_l		wrist_flex_l		wrist_dev_l		hand_finger_flex_l		
0.280833		-2.656976		-7.806929		81.407765		0.037844		1.728423		1.270704		48.696094		-0.125572		7.649057		-100.545091		-16.382893		-13.917062		-2.122108		62.696379		-7.442670		-2.951386		-77.685276		-15.198987		-7.355525		10.397172		-34.642335		-5.115296		7.104538		15.486500		-0.842197		-2.556155		65.821190		-36.096025		21.012434		70.862333		125.311981		7.957738		-4.427999		6.848827		62.510769		-23.796465		15.758239		61.998029		124.328546		0.275639		5.271734		-21.433740		
0.285025		-2.442930		-7.667685		81.640173		0.036964		1.724408		1.262940		49.029133		0.012198		6.981369		-99.194955		-16.962114		-14.593753		-2.561981		62.418947		-7.332105		-2.555290		-75.986134		-15.660597		-7.387091		10.314812		-35.081692		-4.853358		6.867413		15.849543		-0.722087		-2.288912		64.572411		-36.492006		20.296802		70.907960		124.850606		7.563854		-4.622852		6.918239		61.476883		-24.261382		15.580357		62.131631		124.178511		-0.128560		5.590703		-21.557240		
0.289217		-2.290875		-7.510415		81.741443		0.036183		1.720022		1.254941		49.318818		0.162375		6.451188		-97.849307		-17.256485		-14.922283		-2.933676		62.083013		-7.351308		-2.364204		-74.356069		-15.977034		-7.321707		10.274443		-35.434169		-4.677702		6.706673		15.827492		-0.722209		-2.111889		63.349897		-36.989071		19.812522		70.957849		124.455642		7.410220		-4.761642		7.093792		60.306762		-24.723118		15.365900		62.295477		124.085416		-0.413233		5.869803		-21.609350		
0.293409		-2.138359		-7.353667		81.857629		0.035372		1.715539		1.247001		49.596247		0.327356		5.921583		-96.504985		-17.464956		-15.149122		-3.306828		61.682864		-7.376073		-2.213177		-72.655448		-16.248167		-7.249066		10.262098		-35.804532		-4.497487		6.521600		15.879667		-0.699372		-1.933348		62.067504		-37.441526		19.179404		71.020784		123.954077		7.308514		-4.878869		7.311982		59.043925		-25.190783		15.049791		62.548039		124.015265		-0.706442		6.143210		-21.628039		
0.297601		-1.971823		-7.187953		82.006411		0.034566		1.711020		1.239071		49.794067		0.513839		5.411537		-95.106175		-17.573270		-15.279515		-3.762712		61.224989		-7.370675		-2.018962		-70.898412		-16.484127		-7.175499		10.300337		-36.207452		-4.307086		6.307487		16.111922		-0.653798		-1.748220		60.693874		-37.835828		18.324844		71.079613		123.278946		7.297744		-4.917454		7.643430		57.691578		-25.673132		14.642082		62.896950		123.971476		-1.039258		6.404594		-21.554585		
0.301793		-1.843873		-7.038564		82.066578		0.033806		1.706091		1.231025		49.998795		0.690310		4.973431		-93.693877		-17.620842		-15.139500		-4.047606		60.772470		-7.462619		-1.987921		-69.217527		-16.717553		-7.050843		10.323164		-36.520111		-4.164874		6.144157		15.982205		-0.679609		-1.622590		59.300772		-38.377350		17.701030		71.255756		122.771591		7.344448		-4.972487		7.886876		56.215907		-26.300341		14.352204		63.244648		123.953767		-1.336239		6.390761		-21.474064		
0.305985		-1.673790		-6.908642		82.152547		0.033140		1.700985		1.222954		50.177194		0.905040		4.515500		-92.262033		-17.602423		-14.885661		-4.342284		60.309322		-7.558244		-1.879877		-67.513094		-16.938509		-6.892779		10.368129		-36.823134		-3.988177		5.990433		15.984597		-0.685751		-1.491943		57.784093		-38.880161		16.883416		71.465574		122.197939		7.411673		-5.001210		8.175773		54.648026		-26.906513		13.944193		63.599458		123.967631		-1.773349		6.242748		-21.353975		
0.310177		-1.432043		-6.833688		82.261603		0.032573		1.695682		1.214844		50.341930		1.182333		4.020190		-90.768382		-17.452046		-14.442909		-4.719372		59.885066		-7.668788		-1.638820		-65.813505		-17.103311		-6.642563		10.486479		-37.076844		-3.743976		5.907376		16.147378		-0.687907		-1.382976		56.121145		-39.352525		15.816551		71.725379		121.580553		7.506658		-4.945150		8.585266		53.023630		-27.383174		13.381841		63.844514		124.088890		-2.433574		5.895009		-21.092357		
0.314369		-1.198201		-6.789715		82.301485		0.032136		1.689920		1.206548		50.528400		1.462319		3.546395		-89.284182		-17.310931		-13.855994		-5.058004		59.516088		-7.868150		-1.468764		-64.237192		-17.252110		-6.323301		10.640562		-37.219531		-3.530386		5.903678		15.979062		-0.747352		-1.335193		54.365261		-39.966153		14.894657		72.074766		121.134520		7.541636		-4.928146		8.954409		51.334639		-27.850096		12.856730		64.031466		124.260543		-3.146650		5.477919		-20.766100		
0.318561		-0.979151		-6.765020		82.297926		0.031760		1.683904		1.198152		50.707198		1.738559		3.111381		-87.785965		-17.171861		-13.136147		-5.235622		59.154512		-8.095283		-1.329784		-62.707471		-17.364254		-5.997108		10.783191		-37.315319		-3.348721		5.913709		15.777844		-0.814293		-1.275222		52.546690		-40.584810		13.970113		72.430505		120.755950		7.530423		-4.956118		9.228774		49.568503		-28.315799		12.286845		64.251697		124.357225		-3.894796		5.126753		-20.543021		
0.322753		-0.771559		-6.731212		82.266714		0.031439		1.677742		1.189683		50.837095		2.012212		2.709541		-86.264557		-17.020214		-12.242323		-5.263740		58.754085		-8.332365		-1.225052		-61.190753		-17.453096		-5.680881		10.917582		-37.418210		-3.199657		5.923472		15.604722		-0.878771		-1.198236		50.652298		-41.188784		12.968073		72.831381		120.402801		7.513416		-4.970630		9.456570		47.711914		-28.806715		11.680545		64.577919		124.371575		-4.704941		4.864136		-20.371996		
0.326944		-0.596867		-6.647110		82.202022		0.031055		1.671492		1.181121		50.868903		2.265487		2.387315		-84.720624		-16.874887		-11.187995		-5.119714		58.256526		-8.561137		-1.195675		-59.673138		-17.542194		-5.414330		11.014728		-37.574597		-3.096252		5.907292		15.470160		-0.927302		-1.091776		48.712883		-41.772516		11.916421		73.266295		120.073660		7.489767		-4.968593		9.622873		45.731177		-29.374893		11.073741		65.072323		124.264300		-5.559009		4.717493		-20.224102		
0.331136		-0.451258		-6.493435		82.116490		0.030662		1.665198		1.172465		50.787724		2.484105		2.125718		-83.161505		-16.713393		-9.977415		-4.806282		57.621298		-8.790105		-1.252703		-58.127708		-17.636292		-5.182920		11.066235		-37.808703		-3.042299		5.854678		15.390397		-0.956202		-0.954678		46.720008		-42.337924		10.812867		73.738888		119.759639		7.461925		-4.961471		9.743717		43.629339		-30.002234		10.432778		65.706639		124.047150		-6.456526		4.630544		-20.035986		
0.335328		-0.335670		-6.261970		82.020245		0.030244		1.658852		1.163689		50.585651		2.654011		1.904882		-81.600619		-16.517596		-8.634348		-4.315557		56.845768		-9.009320		-1.396790		-56.553913		-17.741035		-4.957872		11.076737		-38.117534		-3.028933		5.774585		15.341773		-0.973786		-0.802822		44.660878		-42.900936		9.662716		74.249175		119.466540		7.434797		-4.966706		9.840262		41.435828		-30.628321		9.726956		66.395904		123.763202		-7.374897		4.531486		-19.740052		
0.339520		-0.248377		-5.958675		81.927624		0.029776		1.652400		1.154752		50.267879		2.765148		1.713382		-80.042923		-16.292015		-7.202825		-3.630660		55.951400		-9.200088		-1.602681		-54.976178		-17.881048		-4.718835		11.047866		-38.478657		-3.036927		5.679862		15.275587		-0.995405		-0.655655		42.508356		-43.482852		8.465567		74.790095		119.196319		7.401006		-5.015361		9.921801		39.166732		-31.184166		8.925080		67.055458		123.472160		-8.284904		4.343955		-19.294144		
0.343712		-0.166703		-5.618891		81.858463		0.029227		1.645759		1.145625		49.878241		2.831639		1.527928		-78.501444		-16.052632		-5.756549		-2.827767		55.023169		-9.350456		-1.795839		-53.455645		-18.091444		-4.471733		10.983716		-38.843930		-3.028525		5.577764		15.155968		-1.028656		-0.515589		40.247464		-44.092349		7.244973		75.345214		118.926213		7.348441		-5.131337		9.985956		36.828743		-31.637404		8.025433		67.648952		123.228372		-9.146623		4.043859		-18.776819		
